<?xml version="1.0" encoding="UTF-8" standalone="no"?>
<svg xmlns="http://www.w3.org/2000/svg" viewBox="0 0 100 100" width="100" height="100">
  <path d="M30,20 L70,20 L70,30 C70,30 75,40 80,60 C85,80 75,85 50,85 C25,85 15,80 20,60 C25,40 30,30 30,30 Z" fill="#fff" stroke="#000" stroke-width="3"/>
  <path d="M35,20 L65,20 L65,35 C65,35 70,45 73,55 C77,70 65,75 50,75 C35,75 23,70 27,55 C30,45 35,35 35,35 Z" fill="#eee"/>
  <circle cx="40" cy="55" r="5" fill="#59C3C3"/>
  <circle cx="60" cy="65" r="8" fill="#59C3C3"/>
</svg> 